PathFileType	4	(X/Y/Z)	Patient4_TMGait_0pt5_02_right_14.trc.trc
DataRate	CameraRate	NumFrames	NumMarkers	Units	OrigDataRate	OrigDataStartFrame	OrigNumFrames
77.777777777778	77.777777777778	7	33	mm	77.777777777778	89	       141
Frame#	Time	Sacral			L.Shoulder			Chest			R.Shoulder			Neck			R.ASIS			L.ASIS			R.Thigh.Superior			R.Thigh.Lateral			R.Thigh.Inferior			R.Patella			L.Thigh.Superior			L.Thigh.Lateral			L.Thigh.Inferior			L.Patella			L.Shank.Superior			L.Shank.Lateral			L.Shank.Inferior			R.Shank.Superior			R.Shank.Lateral			R.Shank.Inferior			R.Heel			R.Midfoot.Superior			R.Midfoot.Lateral			R.Toe			L.Heel			L.Midfoot.Lateral			L.Midfoot.Superior			L.Toe			L.Elbow			L.Wrist			R.Elbow			R.Wrist			
		X1	Y1	Z1	X2	Y2	Z2	X3	Y3	Z3	X4	Y4	Z4	X5	Y5	Z5	X6	Y6	Z6	X7	Y7	Z7	X8	Y8	Z8	X9	Y9	Z9	X10	Y10	Z10	X11	Y11	Z11	X12	Y12	Z12	X13	Y13	Z13	X14	Y14	Z14	X15	Y15	Z15	X16	Y16	Z16	X17	Y17	Z17	X18	Y18	Z18	X19	Y19	Z19	X20	Y20	Z20	X21	Y21	Z21	X22	Y22	Z22	X23	Y23	Z23	X24	Y24	Z24	X25	Y25	Z25	X26	Y26	Z26	X27	Y27	Z27	X28	Y28	Z28	X29	Y29	Z29	X30	Y30	Z30	X31	Y31	Z31	X32	Y32	Z32	X33	Y33	Z33	

89	19.461428571429	596.268037101693	1009.800315117194	501.345549697185	762.949961536003	1434.439966473821	316.190512395619	875.847396651263	1362.384496706994	469.097280734812	806.208142404919	1437.264858089468	648.893358125614	771.966287753667	1494.320810552596	467.150778021547	822.067731220254	939.253033051120	612.683997205688	805.693217360826	957.182822543653	338.959872167557	842.053055648988	729.253311234501	595.973900838913	750.203724940181	629.080310012144	660.129332676596	824.774151409214	563.049338157207	587.684263679137	810.038586736265	459.154118094343	606.372780496962	870.192660280756	760.905204356968	373.993290435113	797.396324850330	637.016517900006	311.971050285616	890.328002424951	568.064593808350	375.558841063692	898.698400948652	495.969286571244	383.913248976429	873.606957247955	422.335903757368	375.365907073664	789.656328677919	305.200520245576	322.315833335096	843.463989518264	195.239899579442	392.201570720867	739.813986310218	389.759210912413	611.451250078418	625.332903622016	335.571031072778	671.714656233628	622.602501393137	226.802124072645	619.078923241790	429.177321745892	128.925649838392	589.069067482421	604.124489174816	110.633504552202	629.323499543046	498.913494245596	85.158297450150	663.045841698553	692.742014353519	33.761632591511	658.862938929967	719.372417249695	37.551271363555	430.123626362512	794.683635686065	35.514086767550	350.726493954078	877.316957647307	96.474245402555	378.879169909538	1006.305879480981	44.444565020114	352.483682731475	689.559110628658	1083.688096299117	207.665782551548	749.265060057504	828.969311919397	206.503404351469	896.286621680412	1103.447001411785	760.691656407448	1136.808090963950	1030.489501583984	707.009544069505	
90	19.474285714286	595.730403445005	1009.758303994759	497.858436085044	764.865144579767	1434.586648706950	313.567394429467	876.124805186287	1362.417051976339	467.624559505776	804.735983820258	1437.302347815732	646.751438686540	772.304832967662	1494.495406147444	464.590462614882	820.962809972082	939.503147520152	610.552894860700	806.196087577875	957.292513217436	336.897011233289	846.452174271775	731.065796138587	594.359436202303	757.350375190792	628.945444382681	658.478406282850	834.228878073453	564.197091978514	586.472345558059	820.621256179014	458.849323968479	605.881481285327	869.312127288885	759.841140201139	371.180425143722	795.126145074944	636.709517794896	309.942882630026	887.241510653977	567.102075495765	373.787866139578	894.946176362708	495.154045403853	382.473011952277	869.519693801015	421.606170183826	374.109080759615	785.097787318687	304.773593773427	321.188972622434	837.922202630222	194.809687354099	391.731980567623	748.299812308165	390.294638769972	610.730732143997	631.782250456070	340.091719416431	670.634615752169	626.060800900300	231.172679969165	618.764245934943	429.885154292223	141.665907547664	588.489025663108	603.349730433627	114.110164858887	629.131829630274	496.978824950768	94.405585240358	662.654691778055	687.009840553153	32.778278035875	659.033534205166	712.904866862727	37.514103139139	430.015056362920	788.217294598388	35.427410310760	350.590870894069	870.934890170431	96.274776220075	378.802029380210	999.924171588782	44.038901709480	352.440536438167	697.401419739387	1083.266963035446	202.356635906229	767.003988094096	830.901508210626	200.810425227558	887.207641886909	1100.753037575646	758.351320832015	1123.706203717275	1011.290982989168	708.967243128256	
91	19.487142857143	595.050973212228	1009.617854121359	494.565827143403	766.711435478150	1434.603309988740	311.130569056512	876.328722376585	1362.292045486288	466.315789183643	803.226445447376	1437.184373735226	644.777008933945	772.676423221630	1494.561558840301	462.190299478457	819.708745343057	939.624663819696	608.525521932622	806.486960175937	957.369757797734	334.940341143701	850.954201234250	733.165115255546	592.565228225410	764.938993485791	629.022529531279	656.781388230637	844.008797106630	565.743367353375	585.028964748242	831.730219582093	458.994674259228	605.016641416559	868.314111002583	758.846451783557	368.576957405878	792.854224032448	636.439271780618	308.015492626327	884.122747901430	566.186810456561	372.158262723822	891.156333138141	494.353966815462	381.141911396003	865.407448149101	420.893515911267	372.932832607802	780.528257628328	304.368159241491	320.116776500305	832.381855053841	194.395253380208	391.286569015763	757.450964772662	391.175133405381	609.722891984226	639.092242598994	344.912659631760	669.371470449135	630.319344560034	235.977578429576	618.167829072267	431.792935136665	155.130589134711	587.585614942051	603.355242278095	118.259114351247	628.828765144900	495.995522581602	104.491460121947	662.043002581175	681.745710076413	31.816234938325	659.208865543827	706.452095588055	37.484073478373	429.900230908883	781.765916243815	35.356442320174	350.453635480090	864.559879708763	96.096432951901	378.723519343298	993.546533354410	43.674474471535	352.392842194971	705.611663080028	1082.860603147551	197.064195100111	785.121289426798	833.282087599463	195.180969907748	877.607964743173	1097.990367856963	756.131906572149	1108.797445226461	992.180724126002	711.257891178779	
92	19.500000000000	594.253788693822	1009.415539450730	491.477830369005	768.445583999421	1434.525592864516	308.902097802975	876.445921226162	1362.056049602520	465.173941780135	801.684374051680	1436.943912470068	642.985435308041	773.069864909808	1494.547766870360	459.978566805461	818.339080052859	939.663696724110	606.622741074596	806.596761160647	957.441848866765	333.097533584216	855.429682589933	735.574133571519	590.552333887852	772.815602679807	629.388803141623	655.023206308270	853.903718581140	567.746755049986	583.322969412839	843.186925640100	459.658818913199	603.772632740922	867.219318665718	757.929458208656	366.191870174352	790.575612382069	636.202517812311	306.215141701359	880.994397869195	565.314162985595	370.665642761485	887.360155039249	493.571381534309	379.935496732493	861.291019763373	420.200979126983	371.855641654102	775.956349184033	303.994984793135	319.117748894904	826.844455764440	193.998783677682	390.876490073070	767.116047146705	392.446888624747	608.424649734505	647.132381766698	349.980780163479	667.915646509769	635.348723293730	241.144670769527	617.277197873563	434.922614042164	168.941929247533	586.342413459387	604.244023415644	122.996577920221	628.374709834966	496.088803796256	115.123456058806	661.174897730138	677.206990393136	31.009975593172	659.321297906999	700.012021010956	37.463021147291	429.782348542737	775.326730787119	35.301381737450	350.318882011147	858.187586960540	95.943166055062	378.645308221664	987.169344492208	43.356713526957	352.338703271208	714.176168036166	1082.510355802016	191.853425391397	803.525015609532	836.146743517885	189.662535145509	867.516356107891	1095.221363154521	754.047837606165	1092.063145921314	973.312781609439	713.873243268117	
93	19.512857142857	593.369080537956	1009.191596687879	488.599929777221	770.044711971431	1434.396927341441	306.893920753210	876.471473597542	1361.762061798712	464.200245958172	800.112416957770	1436.622635184888	641.384928622140	773.471965803090	1494.488758768055	457.976090629115	816.894980060789	939.676946085487	604.866634792945	806.564832658038	957.534450094653	331.375824925036	859.757819564501	738.298196965867	588.314651913336	780.813836773241	630.102067334784	653.201385910865	863.709812990576	570.240332589241	581.355238741045	854.803770553277	460.886632351031	602.176547088716	866.036043412868	757.083458360515	364.020474063078	788.272594384992	635.994760576608	304.556023897142	877.858400893636	564.476056077339	369.301027943039	883.566067144384	492.807057996571	378.856875749543	857.171710689096	419.531505574287	370.885533436559	771.376151497690	303.660304916202	318.202902149239	821.304735172026	193.622416300332	390.506575276325	777.134747304167	394.135117298920	606.858960392042	655.753721606904	355.212876434376	666.270660538210	641.115746596381	246.558407994930	616.101436183974	439.254493454133	182.628160674482	584.774845034770	606.129262164050	128.170422980748	627.727890609357	497.377283880397	125.912748875783	660.032569320294	673.714926456399	30.507154000289	659.282986175584	693.580471262050	37.452858808748	429.663798218399	768.895537028683	35.260736267341	350.189753182333	851.813815598464	95.815533764763	378.567990859225	980.788730608352	43.084527297591	352.277783235134	723.056413241227	1082.270646483850	186.789535230938	822.111140771197	839.536140737049	184.304750945838	856.983036752928	1092.526571510425	752.105269497855	1073.521138843093	954.860771404551	716.785904527833	
94	19.525714285714	592.429093296014	1008.986800896452	485.932526955259	771.508291062167	1434.264443984001	305.109078842223	876.410132552620	1361.462721457151	463.394690741232	798.514800504100	1436.266688236192	639.977034145020	773.869815199276	1494.422082398403	456.195607792328	815.420227815657	939.723582699991	603.273214412198	806.435657427844	957.670411762891	329.778631841565	863.837027065621	741.324588343190	585.880414406264	788.767765217762	631.195585123034	651.326802250784	873.244137980311	573.228401090064	579.158263779213	866.395859683054	462.697129304143	600.283843125361	864.764171893319	756.293269541127	362.049443374916	785.921360980140	635.811862637939	303.041763243380	874.700513969213	563.664060009076	368.055381738602	879.762571117772	492.061103899970	377.901075497788	853.034995139669	418.888660948653	370.022597574977	766.771215945603	303.367317787659	317.376399542678	815.752888859538	193.268810129840	390.176453640946	787.350331891699	396.240646708193	605.071017439396	664.803204411180	360.495317505068	664.453399824273	647.588499915984	252.063839552532	614.669680247274	444.731941180482	195.658859202038	582.931869847268	609.130770215419	133.571353079018	626.851040892330	499.967878398789	136.403315678240	658.620671760053	671.639862701115	30.439247365119	658.995743909046	687.152245346214	37.455507622783	429.545893436127	762.467813139124	35.232249367828	350.068211379886	845.435233341140	95.711788631561	378.491044007560	974.401305955227	42.852276829536	352.210896003932	732.190041143009	1082.202566510715	181.933709240037	840.766615791414	843.492682052547	179.157033963451	846.076125871991	1089.996149285344	750.303387752768	1053.232395492955	937.021663124975	719.945518511326	
95	19.538571428571	591.463572892121	1008.839136622312	483.470293383608	772.855964247101	1434.174232916332	303.543633051306	876.275797566980	1361.204432542449	462.756193497796	796.899149114431	1435.921800856949	638.757992818173	774.252602776249	1494.383975426668	454.641756885288	813.956060036335	939.857069668014	601.848379573459	806.256379886058	957.868693831555	328.304109701129	867.592777999090	744.624223252836	583.307161639195	796.524600339850	632.676924923207	649.422568191306	882.355028702417	576.686642241872	576.790484200622	877.791799874867	465.083720705467	598.169979369905	863.399445543070	755.540828981514	360.262280243103	783.496718681881	635.651384224234	301.668783219071	871.495321292077	562.871402959153	366.922066168182	875.922886857983	491.333670967253	377.059348640786	848.855300397560	418.276950874658	369.261751625565	762.118717345909	303.117503970543	316.636943507006	810.176754780965	192.941334504285	389.882210073102	797.620332653673	398.738928239913	603.121183317870	674.137423586917	365.687174994466	662.493369126563	654.740357049855	257.475767141270	613.026802666042	451.273606471986	207.492831855911	580.890123825195	613.368058542973	138.950220121714	625.717926969304	503.950868673696	146.113706805932	656.966592800313	671.369756776519	30.886897790105	658.366546047299	680.721952735752	37.472686739483	429.428905625022	756.039525124982	35.213615481423	349.955108897271	839.049734417620	95.628859378377	378.413066599113	968.004598303376	42.651772072447	352.139565886527	741.494223015180	1082.365850244526	177.339274330990	859.373911284805	848.056193635769	174.265909280814	834.875980207457	1087.720366669676	748.637075857284	1031.307294718395	920.013312176089	723.278018208229	
